<svg width="1728" height="171" viewBox="0 0 1728 171" fill="none" xmlns="http://www.w3.org/2000/svg">
<g clip-path="url(#clip0_521_1635)">
<rect width="1803.8" height="98" transform="translate(-35.1465 1.38184) rotate(2.25401)" fill="black"/>
<path d="M-74.2723 68.8948L-72.6535 27.7667L-64.4399 28.09L-48.7658 50.9241C-48.537 51.2133 -48.253 51.6248 -47.9137 52.1586C-47.5729 52.6524 -47.252 53.1454 -46.9511 53.6376C-46.6503 54.1298 -46.4454 54.5181 -46.3365 54.8026L-46.0367 54.8144C-46.01 54.135 -45.984 53.4755 -45.9588 52.836C-45.9321 52.1565 -45.9085 51.557 -45.888 51.0374L-45.0149 28.8545L-36.5615 29.1873L-38.1803 70.3154L-46.3939 69.9921L-62.4065 46.6043C-62.7841 46.029 -63.1794 45.3929 -63.5923 44.6962C-64.0053 43.9994 -64.3046 43.4672 -64.4902 43.0996L-64.79 43.0878C-64.8136 43.6873 -64.8372 44.2869 -64.8608 44.8864C-64.8828 45.446 -64.9041 45.9856 -64.9245 46.5052L-65.8189 69.2276L-74.2723 68.8948ZM-29.073 70.6739L-27.4541 29.5457L5.40042 30.8389L5.11253 38.1532L-18.749 37.214L-19.11 46.3869L1.99361 47.2176L1.70808 54.472L-19.3956 53.6413L-19.7897 63.6536L4.43158 64.6069L4.14133 71.9812L-29.073 70.6739ZM18.6271 72.5514L9.45431 30.9985L18.927 31.3713L23.9572 56.1283C24.0629 56.4927 24.1616 57.037 24.2532 57.7612C24.3464 58.4454 24.4379 59.1696 24.528 59.9337C24.618 60.6978 24.6912 61.3812 24.7475 61.9839L25.0473 61.9957C25.1445 61.5592 25.2241 61.062 25.2861 60.504C25.3881 59.9475 25.4893 59.4111 25.5896 58.8946C25.7316 58.3398 25.852 57.8241 25.9508 57.3477C26.0896 56.8727 26.1844 56.4962 26.2354 56.218L32.7763 31.9164L43.448 32.3365L48.1784 57.0817C48.2826 57.4861 48.3813 58.0304 48.4744 58.7146C48.5676 59.3988 48.6592 60.1229 48.7492 60.8871C48.8392 61.6512 48.9124 62.3346 48.9687 62.9373L49.2685 62.9491C49.3658 62.5126 49.4646 62.0361 49.565 61.5196C49.7053 61.0047 49.8257 60.4891 49.9261 59.9726C50.068 59.4178 50.2084 58.9029 50.3472 58.428C50.4859 57.9531 50.6024 57.5373 50.6965 57.1808L57.597 32.8934L66.1704 33.2308L53.7 73.9319L43.5079 73.5307L38.4484 47.9919C38.3505 47.4277 38.2358 46.7826 38.1042 46.0569C38.0142 45.2928 37.9234 44.5486 37.8318 43.8245C37.7402 43.1003 37.6655 42.4569 37.6076 41.8942L37.3678 41.8847C37.2658 42.4411 37.1399 43.0967 36.9901 43.8514C36.8803 44.6077 36.7313 45.3424 36.5431 46.0555C36.3949 46.7702 36.2506 47.385 36.1102 47.8999L29.119 72.9643L18.6271 72.5514ZM81.4079 75.0224L83.0267 33.8943L99.8137 34.555C104.09 34.7234 107.698 35.6059 110.638 37.2028C113.577 38.7996 115.787 41.1483 117.266 44.2489C118.787 47.3111 119.454 51.2004 119.269 55.9167C119.085 60.5931 118.113 64.4179 116.355 67.391C114.637 70.3657 112.25 72.5335 109.194 73.8944C106.138 75.2552 102.472 75.8515 98.1949 75.6832L81.4079 75.0224ZM90.6312 67.9998L98.4252 68.3065C100.224 68.3773 101.833 68.1805 103.252 67.7159C104.672 67.2514 105.861 66.5376 106.819 65.5746C107.779 64.5715 108.529 63.3201 109.069 61.8201C109.61 60.2802 109.92 58.491 110 56.4526L110.071 54.654C110.151 52.6156 109.982 50.8275 109.562 49.2898C109.143 47.7121 108.494 46.4056 107.614 45.3702C106.736 44.2948 105.608 43.4698 104.229 42.8951C102.852 42.2805 101.264 41.9378 99.4659 41.867L91.6719 41.5602L90.6312 67.9998ZM125.729 76.7669L127.348 35.6388L149.89 36.5261C152.928 36.6456 155.425 37.2843 157.381 38.4421C159.377 39.6015 160.836 41.1801 161.758 43.178C162.682 45.1358 163.094 47.3737 162.995 49.8918C162.889 52.5697 162.196 54.9243 160.915 56.9555C159.636 58.9467 157.836 60.4371 155.515 61.4266L163.26 78.2442L153.368 77.8548L146.703 62.5809L135.252 62.1301L134.662 77.1185L125.729 76.7669ZM135.531 55.0556L147.941 55.5441C149.74 55.6149 151.16 55.1304 152.201 54.0905C153.245 53.0107 153.803 51.5316 153.877 49.653C153.924 48.4539 153.745 47.4261 153.338 46.5694C152.933 45.6728 152.319 44.9881 151.497 44.5154C150.675 44.0427 149.645 43.782 148.406 43.7332L135.995 43.2448L135.531 55.0556ZM188.446 79.956C184.089 79.7846 180.363 78.8573 177.267 77.1742C174.17 75.4911 171.845 73.0378 170.291 69.8142C168.736 66.5905 168.053 62.6006 168.24 57.8442C168.43 53.008 169.426 49.0641 171.228 46.0126C173.031 42.9211 175.541 40.6781 178.758 39.2835C181.977 37.849 185.765 37.2175 190.121 37.389C194.558 37.5636 198.304 38.4917 201.361 40.1732C204.458 41.8163 206.784 44.2497 208.339 47.4733C209.895 50.657 210.578 54.6669 210.387 59.5032C210.2 64.2595 209.205 68.1834 207.402 71.2749C205.599 74.3663 203.088 76.6293 199.869 78.0638C196.69 79.4999 192.882 80.1307 188.446 79.956ZM188.734 72.6417C190.692 72.7188 192.422 72.5067 193.923 72.0053C195.424 71.5039 196.696 70.7134 197.739 69.6336C198.782 68.5537 199.595 67.2247 200.178 65.6464C200.762 64.0281 201.095 62.1798 201.177 60.1014L201.25 58.2428C201.333 56.1245 201.147 54.2357 200.692 52.5765C200.237 50.9173 199.531 49.5285 198.574 48.41C197.619 47.2515 196.413 46.3634 194.956 45.7456C193.5 45.1279 191.792 44.7804 189.833 44.7033C187.915 44.6278 186.205 44.8407 184.704 45.3421C183.203 45.8435 181.931 46.634 180.888 47.7138C179.846 48.7537 179.034 50.0827 178.449 51.701C177.905 53.3209 177.592 55.19 177.508 57.3083L177.435 59.1669C177.353 61.2453 177.52 63.1133 177.935 64.7709C178.392 66.3901 179.098 67.779 180.053 68.9374C181.008 70.0959 182.214 70.984 183.671 71.6018C185.128 72.2195 186.815 72.5662 188.734 72.6417ZM216.83 80.3527L218.449 39.2245L239.853 40.067C242.81 40.1834 245.246 40.8397 247.161 42.0359C249.117 43.1938 250.555 44.7916 251.476 46.8294C252.438 48.8287 252.865 51.1874 252.758 53.9053C252.651 56.6232 252.018 58.9801 250.859 60.976C249.741 62.9336 248.141 64.4318 246.058 65.4707C243.976 66.5096 241.456 66.9709 238.498 66.8544L226.327 66.3754L225.763 80.7043L216.83 80.3527ZM226.615 59.0611L237.587 59.4929C239.465 59.5668 240.926 59.0839 241.967 58.0441C243.049 57.0058 243.627 55.5274 243.703 53.6089C243.755 52.2899 243.578 51.1821 243.173 50.2855C242.768 49.3889 242.136 48.6834 241.275 48.1692C240.455 47.6565 239.385 47.3742 238.066 47.3223L227.094 46.8905L226.615 59.0611Z" fill="#F5F5F5"/>
<circle cx="279.681" cy="62.8113" r="10" transform="rotate(2.25401 279.681 62.8113)" fill="#F5F5F5"/>
<path d="M308.425 84.1439L310.044 43.0157L318.257 43.339L333.931 66.1731C334.16 66.4623 334.444 66.8738 334.784 67.4076C335.124 67.9014 335.445 68.3944 335.746 68.8866C336.047 69.3788 336.252 69.7672 336.361 70.0517L336.661 70.0635C336.687 69.384 336.713 68.7245 336.738 68.085C336.765 67.4055 336.789 66.806 336.809 66.2864L337.682 44.1036L346.136 44.4363L344.517 85.5645L336.303 85.2412L320.291 61.8533C319.913 61.278 319.518 60.642 319.105 59.9452C318.692 59.2484 318.393 58.7162 318.207 58.3486L317.907 58.3368C317.884 58.9364 317.86 59.5359 317.836 60.1354C317.814 60.695 317.793 61.2346 317.773 61.7542L316.878 84.4766L308.425 84.1439ZM353.624 85.9229L355.243 44.7948L388.098 46.0879L387.81 53.4023L363.948 52.4631L363.587 61.636L384.691 62.4666L384.405 69.721L363.302 68.8904L362.908 78.9026L387.129 79.856L386.839 87.2302L353.624 85.9229ZM401.324 87.8004L392.152 46.2475L401.624 46.6203L406.654 71.3773C406.76 71.7418 406.859 72.2861 406.95 73.0102C407.044 73.6944 407.135 74.4186 407.225 75.1827C407.315 75.9469 407.388 76.6303 407.445 77.2329L407.745 77.2447C407.842 76.8082 407.921 76.311 407.983 75.753C408.085 75.1966 408.187 74.6601 408.287 74.1437C408.429 73.5888 408.549 73.0732 408.648 72.5967C408.787 72.1218 408.882 71.7452 408.933 71.467L415.474 47.1654L426.145 47.5855L430.876 72.3307C430.98 72.7351 431.079 73.2794 431.172 73.9636C431.265 74.6478 431.356 75.3719 431.446 76.1361C431.536 76.9002 431.61 77.5836 431.666 78.1863L431.966 78.1981C432.063 77.7616 432.162 77.2851 432.262 76.7686C432.403 76.2538 432.523 75.7381 432.623 75.2217C432.765 74.6668 432.906 74.1519 433.044 73.677C433.183 73.2021 433.3 72.7864 433.394 72.4298L440.294 48.1424L448.868 48.4798L436.397 89.1809L426.205 88.7797L421.146 63.241C421.048 62.6767 420.933 62.0317 420.801 61.3059C420.711 60.5418 420.621 59.7977 420.529 59.0735C420.437 58.3493 420.363 57.7059 420.305 57.1432L420.065 57.1337C419.963 57.6902 419.837 58.3457 419.687 59.1004C419.578 59.8567 419.429 60.5914 419.24 61.3045C419.092 62.0193 418.948 62.6341 418.807 63.1489L411.816 88.2134L401.324 87.8004ZM464.105 90.2715L465.724 49.1433L482.511 49.8041C486.788 49.9724 490.396 50.855 493.335 52.4518C496.275 54.0487 498.484 56.3974 499.963 59.4979C501.484 62.5601 502.152 66.4494 501.966 71.1657C501.782 75.8421 500.811 79.6669 499.052 82.64C497.334 85.6147 494.947 87.7825 491.891 89.1434C488.835 90.5043 485.169 91.1005 480.892 90.9322L464.105 90.2715ZM473.329 83.2488L481.122 83.5556C482.921 83.6264 484.53 83.4295 485.949 82.9649C487.369 82.5004 488.558 81.7866 489.516 80.8236C490.477 79.8206 491.226 78.5691 491.766 77.0691C492.307 75.5292 492.617 73.7401 492.698 71.7016L492.768 69.903C492.849 67.8646 492.679 66.0765 492.259 64.5388C491.841 62.9612 491.192 61.6546 490.312 60.6192C489.433 59.5438 488.305 58.7188 486.926 58.1442C485.549 57.5295 483.962 57.1868 482.163 57.116L474.369 56.8093L473.329 83.2488ZM508.426 92.016L510.045 50.8878L532.588 51.7751C535.625 51.8946 538.122 52.5333 540.078 53.6912C542.074 54.8506 543.533 56.4292 544.455 58.427C545.379 60.3848 545.791 62.6228 545.692 65.1408C545.587 67.8187 544.894 70.1733 543.613 72.2045C542.333 74.1957 540.533 75.6861 538.213 76.6756L545.957 93.4932L536.065 93.1038L529.4 77.8299L517.949 77.3792L517.359 92.3676L508.426 92.016ZM518.228 70.3046L530.638 70.7931C532.437 70.8639 533.857 70.3794 534.899 69.3396C535.942 68.2598 536.501 66.7806 536.574 64.902C536.622 63.703 536.442 62.6751 536.035 61.8184C535.63 60.9218 535.017 60.2372 534.195 59.7645C533.373 59.2918 532.342 59.031 531.103 58.9823L518.693 58.4938L518.228 70.3046ZM571.143 95.2051C566.787 95.0336 563.06 94.1063 559.964 92.4232C556.868 90.7402 554.542 88.2868 552.988 85.0632C551.434 81.8395 550.75 77.8496 550.937 73.0933C551.128 68.257 552.123 64.3131 553.925 61.2616C555.728 58.1701 558.238 55.9271 561.455 54.5326C564.674 53.0981 568.462 52.4665 572.819 52.638C577.255 52.8126 581.002 53.7407 584.058 55.4222C587.156 57.0653 589.482 59.4987 591.036 62.7223C592.592 65.906 593.275 69.9159 593.085 74.7522C592.897 79.5085 591.902 83.4324 590.099 86.5239C588.296 89.6154 585.785 91.8784 582.566 93.3129C579.387 94.749 575.58 95.3797 571.143 95.2051ZM571.431 87.8907C573.39 87.9678 575.119 87.7557 576.62 87.2543C578.121 86.753 579.393 85.9624 580.436 84.8826C581.48 83.8028 582.293 82.4737 582.875 80.8954C583.459 79.2771 583.792 77.4288 583.874 75.3504L583.947 73.4918C584.03 71.3735 583.845 69.4847 583.389 67.8255C582.934 66.1663 582.228 64.7775 581.272 63.659C580.317 62.5005 579.111 61.6124 577.654 60.9946C576.197 60.3769 574.489 60.0294 572.531 59.9524C570.612 59.8768 568.903 60.0898 567.402 60.5911C565.901 61.0925 564.629 61.8831 563.585 62.9629C562.544 64.0027 561.731 65.3318 561.147 66.95C560.603 68.5699 560.289 70.439 560.205 72.5574L560.132 74.4159C560.05 76.4943 560.217 78.3623 560.632 80.0199C561.089 81.6391 561.795 83.028 562.75 84.1864C563.705 85.3449 564.911 86.233 566.368 86.8508C567.825 87.4686 569.513 87.8152 571.431 87.8907ZM599.528 95.6017L601.146 54.4736L622.55 55.316C625.508 55.4324 627.944 56.0887 629.858 57.285C631.814 58.4428 633.252 60.0406 634.173 62.0784C635.135 64.0778 635.563 66.4364 635.456 69.1543C635.349 71.8722 634.715 74.2291 633.556 76.2251C632.438 78.1826 630.838 79.6808 628.756 80.7197C626.673 81.7586 624.153 82.2199 621.195 82.1035L609.025 81.6244L608.461 95.9533L599.528 95.6017ZM609.313 74.3101L620.284 74.7419C622.163 74.8159 623.623 74.3329 624.664 73.2931C625.746 72.2548 626.325 70.7764 626.4 68.8579C626.452 67.5389 626.276 66.4311 625.871 65.5345C625.466 64.6379 624.833 63.9325 623.972 63.4182C623.152 62.9056 622.082 62.6233 620.763 62.5714L609.792 62.1395L609.313 74.3101Z" fill="#F5F5F5"/>
<circle cx="662.378" cy="78.0604" r="10" transform="rotate(2.25401 662.378 78.0604)" fill="#F5F5F5"/>
<path d="M691.087 99.2054L692.706 58.0772L700.919 58.4005L716.594 81.2346C716.822 81.5239 717.106 81.9354 717.446 82.4691C717.787 82.9629 718.107 83.4559 718.408 83.9481C718.709 84.4403 718.914 84.8287 719.023 85.1132L719.323 85.125C719.349 84.4455 719.375 83.786 719.401 83.1465C719.427 82.4671 719.451 81.8675 719.471 81.3479L720.344 59.1651L728.798 59.4978L727.179 100.626L718.965 100.303L702.953 76.9148C702.575 76.3395 702.18 75.7035 701.767 75.0067C701.354 74.3099 701.055 73.7777 700.869 73.4102L700.569 73.3984C700.546 73.9979 700.522 74.5974 700.499 75.197C700.477 75.7565 700.455 76.2961 700.435 76.8157L699.54 99.5381L691.087 99.2054ZM736.286 100.984L737.905 59.8563L770.76 61.1495L770.472 68.4638L746.61 67.5246L746.249 76.6975L767.353 77.5281L767.067 84.7825L745.964 83.9519L745.57 93.9641L769.791 94.9175L769.501 102.292L736.286 100.984ZM783.987 102.862L774.814 61.309L784.286 61.6819L789.317 86.4389C789.422 86.8033 789.521 87.3476 789.613 88.0718C789.706 88.756 789.797 89.4801 789.887 90.2442C789.977 91.0084 790.051 91.6918 790.107 92.2945L790.407 92.3063C790.504 91.8698 790.583 91.3725 790.645 90.8145C790.747 90.2581 790.849 89.7216 790.949 89.2052C791.091 88.6503 791.211 88.1347 791.31 87.6582C791.449 87.1833 791.544 86.8067 791.595 86.5285L798.136 62.227L808.807 62.647L813.538 87.3922C813.642 87.7966 813.741 88.3409 813.834 89.0251C813.927 89.7093 814.019 90.4335 814.109 91.1976C814.199 91.9617 814.272 92.6451 814.328 93.2478L814.628 93.2596C814.725 92.8231 814.824 92.3466 814.924 91.8302C815.065 91.3153 815.185 90.7996 815.285 90.2832C815.427 89.7283 815.568 89.2135 815.707 88.7385C815.845 88.2636 815.962 87.8479 816.056 87.4913L822.956 63.2039L831.53 63.5414L819.059 104.242L808.867 103.841L803.808 78.3025C803.71 77.7382 803.595 77.0932 803.464 76.3675C803.374 75.6033 803.283 74.8592 803.191 74.135C803.1 73.4109 803.025 72.7674 802.967 72.2047L802.727 72.1953C802.625 72.7517 802.499 73.4072 802.349 74.1619C802.24 74.9182 802.091 75.6529 801.902 76.3661C801.754 77.0808 801.61 77.6956 801.47 78.2105L794.478 103.275L783.987 102.862ZM846.767 105.333L848.386 64.2048L865.173 64.8656C869.45 65.0339 873.058 65.9165 875.997 67.5133C878.937 69.1102 881.146 71.4589 882.625 74.5595C884.146 77.6216 884.814 81.5109 884.628 86.2273C884.444 90.9036 883.473 94.7284 881.714 97.7016C879.996 100.676 877.609 102.844 874.553 104.205C871.497 105.566 867.831 106.162 863.554 105.994L846.767 105.333ZM855.991 98.3103L863.785 98.6171C865.583 98.6879 867.192 98.491 868.612 98.0265C870.031 97.5619 871.22 96.8481 872.179 95.8851C873.139 94.8821 873.889 93.6306 874.428 92.1307C874.969 90.5907 875.28 88.8016 875.36 86.7632L875.431 84.9646C875.511 82.9261 875.341 81.1381 874.921 79.6004C874.503 78.0227 873.854 76.7162 872.974 75.6807C872.095 74.6054 870.967 73.7803 869.588 73.2057C868.212 72.5911 866.624 72.2483 864.825 72.1776L857.031 71.8708L855.991 98.3103ZM891.088 107.077L892.707 65.9493L915.25 66.8366C918.287 66.9562 920.784 67.5949 922.74 68.7527C924.736 69.9121 926.195 71.4907 927.117 73.4885C928.041 75.4463 928.453 77.6843 928.354 80.2023C928.249 82.8803 927.556 85.2348 926.275 87.266C924.996 89.2573 923.196 90.7476 920.875 91.7371L928.619 108.555L918.727 108.165L912.063 92.8914L900.611 92.4407L900.022 107.429L891.088 107.077ZM900.89 85.3662L913.3 85.8546C915.099 85.9254 916.519 85.4409 917.561 84.4011C918.604 83.3213 919.163 81.8421 919.237 79.9636C919.284 78.7645 919.104 77.7366 918.697 76.88C918.292 75.9833 917.679 75.2987 916.857 74.826C916.035 74.3533 915.004 74.0926 913.765 74.0438L901.355 73.5553L900.89 85.3662ZM953.805 110.267C949.449 110.095 945.722 109.168 942.626 107.485C939.53 105.802 937.205 103.348 935.65 100.125C934.096 96.9011 933.412 92.9111 933.599 88.1548C933.79 83.3185 934.786 79.3746 936.587 76.3231C938.39 73.2316 940.9 70.9886 944.117 69.5941C947.336 68.1596 951.124 67.5281 955.481 67.6995C959.917 67.8742 963.664 68.8022 966.72 70.4837C969.818 72.1268 972.144 74.5602 973.698 77.7838C975.254 80.9675 975.937 84.9775 975.747 89.8137C975.559 94.57 974.564 98.4939 972.761 101.585C970.958 104.677 968.447 106.94 965.229 108.374C962.05 109.81 958.242 110.441 953.805 110.267ZM954.093 102.952C956.052 103.029 957.781 102.817 959.282 102.316C960.783 101.814 962.055 101.024 963.098 99.9441C964.142 98.8643 964.955 97.5352 965.537 95.9569C966.121 94.3386 966.454 92.4903 966.536 90.4119L966.609 88.5534C966.693 86.435 966.507 84.5462 966.052 82.887C965.596 81.2279 964.891 79.839 963.934 78.7205C962.979 77.5621 961.773 76.6739 960.316 76.0562C958.859 75.4384 957.151 75.091 955.193 75.0139C953.274 74.9384 951.565 75.1513 950.064 75.6527C948.563 76.154 947.291 76.9446 946.248 78.0244C945.206 79.0642 944.393 80.3933 943.809 82.0116C943.265 83.6314 942.951 85.5005 942.868 87.6189L942.794 89.4774C942.713 91.5558 942.879 93.4238 943.294 95.0814C943.751 96.7007 944.457 98.0895 945.412 99.248C946.367 100.406 947.573 101.295 949.03 101.912C950.487 102.53 952.175 102.877 954.093 102.952ZM982.19 110.663L983.809 69.5351L1005.21 70.3775C1008.17 70.494 1010.61 71.1503 1012.52 72.3465C1014.48 73.5043 1015.91 75.1021 1016.84 77.1399C1017.8 79.1393 1018.22 81.4979 1018.12 84.2158C1018.01 86.9337 1017.38 89.2906 1016.22 91.2866C1015.1 93.2441 1013.5 94.7424 1011.42 95.7813C1009.34 96.8202 1006.82 97.2814 1003.86 97.165L991.687 96.686L991.123 111.015L982.19 110.663ZM991.975 89.3716L1002.95 89.8035C1004.82 89.8774 1006.28 89.3944 1007.33 88.3546C1008.41 87.3164 1008.99 85.838 1009.06 83.9194C1009.11 82.6005 1008.94 81.4927 1008.53 80.596C1008.13 79.6994 1007.49 78.994 1006.63 78.4797C1005.81 77.9671 1004.74 77.6848 1003.43 77.6329L992.454 77.201L991.975 89.3716Z" fill="#F5F5F5"/>
<circle cx="1045.04" cy="93.1219" r="10" transform="rotate(2.25401 1045.04 93.1219)" fill="#F5F5F5"/>
<path d="M1073.79 114.269L1075.41 73.1407L1083.62 73.464L1099.3 96.2981C1099.53 96.5873 1099.81 96.9988 1100.15 97.5326C1100.49 98.0264 1100.81 98.5194 1101.11 99.0116C1101.41 99.5038 1101.62 99.8922 1101.73 100.177L1102.03 100.188C1102.05 99.509 1102.08 98.8495 1102.11 98.21C1102.13 97.5305 1102.16 96.931 1102.18 96.4114L1103.05 74.2286L1111.5 74.5613L1109.88 115.689L1101.67 115.366L1085.66 91.9783C1085.28 91.403 1084.89 90.767 1084.47 90.0702C1084.06 89.3734 1083.76 88.8412 1083.57 88.4736L1083.27 88.4618C1083.25 89.0614 1083.23 89.6609 1083.2 90.2604C1083.18 90.82 1083.16 91.3596 1083.14 91.8792L1082.25 114.602L1073.79 114.269ZM1118.99 116.048L1120.61 74.9198L1153.46 76.2129L1153.18 83.5273L1129.32 82.5881L1128.95 91.761L1150.06 92.5916L1149.77 99.846L1128.67 99.0154L1128.27 109.028L1152.5 109.981L1152.21 117.355L1118.99 116.048ZM1166.69 117.925L1157.52 76.3725L1166.99 76.7453L1172.02 101.502C1172.13 101.867 1172.23 102.411 1172.32 103.135C1172.41 103.819 1172.5 104.544 1172.59 105.308C1172.68 106.072 1172.76 106.755 1172.81 107.358L1173.11 107.37C1173.21 106.933 1173.29 106.436 1173.35 105.878C1173.45 105.322 1173.55 104.785 1173.65 104.269C1173.8 103.714 1173.92 103.198 1174.02 102.722C1174.15 102.247 1174.25 101.87 1174.3 101.592L1180.84 77.2904L1191.51 77.7105L1196.24 102.456C1196.35 102.86 1196.45 103.404 1196.54 104.089C1196.63 104.773 1196.72 105.497 1196.81 106.261C1196.9 107.025 1196.98 107.709 1197.03 108.311L1197.33 108.323C1197.43 107.887 1197.53 107.41 1197.63 106.894C1197.77 106.379 1197.89 105.863 1197.99 105.347C1198.13 104.792 1198.27 104.277 1198.41 103.802C1198.55 103.327 1198.67 102.911 1198.76 102.555L1205.66 78.2674L1214.23 78.6048L1201.76 119.306L1191.57 118.905L1186.51 93.366C1186.41 92.8017 1186.3 92.1567 1186.17 91.4309C1186.08 90.6668 1185.99 89.9227 1185.9 89.1985C1185.8 88.4743 1185.73 87.8309 1185.67 87.2682L1185.43 87.2587C1185.33 87.8152 1185.2 88.4707 1185.05 89.2254C1184.94 89.9817 1184.8 90.7164 1184.61 91.4295C1184.46 92.1443 1184.32 92.7591 1184.17 93.2739L1177.18 118.338L1166.69 117.925ZM1229.47 120.396L1231.09 79.2683L1247.88 79.9291C1252.15 80.0974 1255.76 80.98 1258.7 82.5768C1261.64 84.1737 1263.85 86.5224 1265.33 89.6229C1266.85 92.6851 1267.52 96.5744 1267.33 101.291C1267.15 105.967 1266.18 109.792 1264.42 112.765C1262.7 115.74 1260.31 117.908 1257.26 119.268C1254.2 120.629 1250.54 121.226 1246.26 121.057L1229.47 120.396ZM1238.7 113.374L1246.49 113.681C1248.29 113.751 1249.9 113.554 1251.32 113.09C1252.74 112.625 1253.92 111.912 1254.88 110.949C1255.84 109.946 1256.59 108.694 1257.13 107.194C1257.67 105.654 1257.98 103.865 1258.06 101.827L1258.14 100.028C1258.22 97.9896 1258.05 96.2015 1257.63 94.6638C1257.21 93.0862 1256.56 91.7796 1255.68 90.7442C1254.8 89.6688 1253.67 88.8438 1252.29 88.2692C1250.92 87.6545 1249.33 87.3118 1247.53 87.241L1239.74 86.9343L1238.7 113.374ZM1273.79 122.141L1275.41 81.0128L1297.95 81.9001C1300.99 82.0196 1303.49 82.6583 1305.45 83.8162C1307.44 84.9756 1308.9 86.5542 1309.82 88.552C1310.75 90.5098 1311.16 92.7478 1311.06 95.2658C1310.95 97.9437 1310.26 100.298 1308.98 102.33C1307.7 104.321 1305.9 105.811 1303.58 106.801L1311.32 123.618L1301.43 123.229L1294.77 107.955L1283.32 107.504L1282.73 122.493L1273.79 122.141ZM1283.59 100.43L1296.01 100.918C1297.8 100.989 1299.22 100.504 1300.27 99.4646C1301.31 98.3848 1301.87 96.9056 1301.94 95.027C1301.99 93.828 1301.81 92.8001 1301.4 91.9434C1301 91.0468 1300.38 90.3622 1299.56 89.8895C1298.74 89.4168 1297.71 89.156 1296.47 89.1073L1284.06 88.6188L1283.59 100.43ZM1336.51 125.33C1332.15 125.159 1328.43 124.231 1325.33 122.548C1322.23 120.865 1319.91 118.412 1318.36 115.188C1316.8 111.965 1316.12 107.975 1316.3 103.218C1316.49 98.382 1317.49 94.4381 1319.29 91.3866C1321.1 88.2951 1323.61 86.0521 1326.82 84.6576C1330.04 83.2231 1333.83 82.5915 1338.19 82.763C1342.62 82.9376 1346.37 83.8657 1349.42 85.5472C1352.52 87.1903 1354.85 89.6237 1356.4 92.8473C1357.96 96.031 1358.64 100.041 1358.45 104.877C1358.26 109.634 1357.27 113.557 1355.47 116.649C1353.66 119.74 1351.15 122.003 1347.93 123.438C1344.75 124.874 1340.95 125.505 1336.51 125.33ZM1336.8 118.016C1338.76 118.093 1340.49 117.881 1341.99 117.379C1343.49 116.878 1344.76 116.087 1345.8 115.008C1346.85 113.928 1347.66 112.599 1348.24 111.02C1348.83 109.402 1349.16 107.554 1349.24 105.475L1349.31 103.617C1349.4 101.498 1349.21 99.6097 1348.76 97.9505C1348.3 96.2913 1347.6 94.9025 1346.64 93.784C1345.68 92.6255 1344.48 91.7374 1343.02 91.1196C1341.56 90.5019 1339.86 90.1544 1337.9 90.0774C1335.98 90.0018 1334.27 90.2148 1332.77 90.7161C1331.27 91.2175 1330 92.0081 1328.95 93.0879C1327.91 94.1277 1327.1 95.4568 1326.51 97.075C1325.97 98.6949 1325.66 100.564 1325.57 102.682L1325.5 104.541C1325.42 106.619 1325.58 108.487 1326 110.145C1326.46 111.764 1327.16 113.153 1328.12 114.311C1329.07 115.47 1330.28 116.358 1331.74 116.976C1333.19 117.594 1334.88 117.94 1336.8 118.016ZM1364.89 125.727L1366.51 84.5986L1387.92 85.441C1390.87 85.5574 1393.31 86.2137 1395.23 87.41C1397.18 88.5678 1398.62 90.1656 1399.54 92.2034C1400.5 94.2028 1400.93 96.5614 1400.82 99.2793C1400.72 101.997 1400.08 104.354 1398.92 106.35C1397.81 108.308 1396.21 109.806 1394.12 110.845C1392.04 111.884 1389.52 112.345 1386.56 112.228L1374.39 111.749L1373.83 126.078L1364.89 125.727ZM1374.68 104.435L1385.65 104.867C1387.53 104.941 1388.99 104.458 1390.03 103.418C1391.11 102.38 1391.69 100.901 1391.77 98.9829C1391.82 97.6639 1391.64 96.5561 1391.24 95.6595C1390.83 94.7629 1390.2 94.0575 1389.34 93.5432C1388.52 93.0306 1387.45 92.7483 1386.13 92.6964L1375.16 92.2645L1374.68 104.435Z" fill="#F5F5F5"/>
<circle cx="1427.75" cy="108.185" r="10" transform="rotate(2.25401 1427.75 108.185)" fill="#F5F5F5"/>
<path d="M1456.5 129.331L1458.11 88.2032L1466.33 88.5265L1482 111.361C1482.23 111.65 1482.51 112.061 1482.85 112.595C1483.19 113.089 1483.52 113.582 1483.82 114.074C1484.12 114.566 1484.32 114.955 1484.43 115.239L1484.73 115.251C1484.76 114.571 1484.78 113.912 1484.81 113.273C1484.84 112.593 1484.86 111.993 1484.88 111.474L1485.75 89.2911L1494.21 89.6238L1492.59 130.752L1484.37 130.429L1468.36 107.041C1467.98 106.466 1467.59 105.829 1467.18 105.133C1466.76 104.436 1466.46 103.904 1466.28 103.536L1465.98 103.524C1465.95 104.124 1465.93 104.723 1465.91 105.323C1465.88 105.883 1465.86 106.422 1465.84 106.942L1464.95 129.664L1456.5 129.331ZM1501.69 131.11L1503.31 89.9823L1536.17 91.2754L1535.88 98.5898L1512.02 97.6506L1511.66 106.823L1532.76 107.654L1532.48 114.908L1511.37 114.078L1510.98 124.09L1535.2 125.043L1534.91 132.418L1501.69 131.11ZM1549.39 132.988L1540.22 91.435L1549.69 91.8078L1554.72 116.565C1554.83 116.929 1554.93 117.474 1555.02 118.198C1555.11 118.882 1555.21 119.606 1555.3 120.37C1555.39 121.134 1555.46 121.818 1555.52 122.42L1555.81 122.432C1555.91 121.996 1555.99 121.498 1556.05 120.94C1556.16 120.384 1556.26 119.848 1556.36 119.331C1556.5 118.776 1556.62 118.261 1556.72 117.784C1556.86 117.309 1556.95 116.933 1557 116.655L1563.54 92.3529L1574.22 92.773L1578.95 117.518C1579.05 117.923 1579.15 118.467 1579.24 119.151C1579.34 119.835 1579.43 120.559 1579.52 121.324C1579.61 122.088 1579.68 122.771 1579.74 123.374L1580.04 123.386C1580.13 122.949 1580.23 122.473 1580.33 121.956C1580.47 121.441 1580.59 120.926 1580.69 120.409C1580.84 119.854 1580.98 119.339 1581.11 118.865C1581.25 118.39 1581.37 117.974 1581.46 117.617L1588.36 93.3299L1596.94 93.6673L1584.47 134.368L1574.28 133.967L1569.22 108.428C1569.12 107.864 1569 107.219 1568.87 106.493C1568.78 105.729 1568.69 104.985 1568.6 104.261C1568.51 103.537 1568.43 102.893 1568.38 102.331L1568.14 102.321C1568.03 102.878 1567.91 103.533 1567.76 104.288C1567.65 105.044 1567.5 105.779 1567.31 106.492C1567.16 107.207 1567.02 107.822 1566.88 108.336L1559.89 133.401L1549.39 132.988ZM1612.18 135.459L1613.79 94.3308L1630.58 94.9916C1634.86 95.1599 1638.47 96.0425 1641.41 97.6393C1644.35 99.2362 1646.55 101.585 1648.03 104.685C1649.55 107.748 1650.22 111.637 1650.04 116.353C1649.85 121.03 1648.88 124.854 1647.12 127.828C1645.4 130.802 1643.02 132.97 1639.96 134.331C1636.91 135.692 1633.24 136.288 1628.96 136.12L1612.18 135.459ZM1621.4 128.436L1629.19 128.743C1630.99 128.814 1632.6 128.617 1634.02 128.152C1635.44 127.688 1636.63 126.974 1637.59 126.011C1638.55 125.008 1639.3 123.757 1639.84 122.257C1640.38 120.717 1640.69 118.928 1640.77 116.889L1640.84 115.091C1640.92 113.052 1640.75 111.264 1640.33 109.726C1639.91 108.149 1639.26 106.842 1638.38 105.807C1637.5 104.731 1636.38 103.906 1635 103.332C1633.62 102.717 1632.03 102.374 1630.23 102.304L1622.44 101.997L1621.4 128.436ZM1656.5 137.203L1658.12 96.0753L1680.66 96.9626C1683.7 97.0821 1686.19 97.7208 1688.15 98.8787C1690.14 100.038 1691.6 101.617 1692.53 103.614C1693.45 105.572 1693.86 107.81 1693.76 110.328C1693.66 113.006 1692.96 115.361 1691.68 117.392C1690.4 119.383 1688.6 120.874 1686.28 121.863L1694.03 138.681L1684.14 138.291L1677.47 123.017L1666.02 122.567L1665.43 137.555L1656.5 137.203ZM1666.3 115.492L1678.71 115.981C1680.51 116.051 1681.93 115.567 1682.97 114.527C1684.01 113.447 1684.57 111.968 1684.64 110.09C1684.69 108.89 1684.51 107.863 1684.11 107.006C1683.7 106.109 1683.09 105.425 1682.27 104.952C1681.44 104.479 1680.41 104.219 1679.17 104.17L1666.76 103.681L1666.3 115.492ZM1719.21 140.393C1714.86 140.221 1711.13 139.294 1708.03 137.611C1704.94 135.928 1702.61 133.474 1701.06 130.251C1699.5 127.027 1698.82 123.037 1699.01 118.281C1699.2 113.445 1700.19 109.501 1702 106.449C1703.8 103.358 1706.31 101.115 1709.53 99.7201C1712.74 98.2856 1716.53 97.654 1720.89 97.8255C1725.33 98.0001 1729.07 98.9282 1732.13 100.61C1735.23 102.253 1737.55 104.686 1739.11 107.91C1740.66 111.093 1741.35 115.103 1741.15 119.94C1740.97 124.696 1739.97 128.62 1738.17 131.711C1736.37 134.803 1733.86 137.066 1730.64 138.5C1727.46 139.936 1723.65 140.567 1719.21 140.393ZM1719.5 133.078C1721.46 133.155 1723.19 132.943 1724.69 132.442C1726.19 131.94 1727.46 131.15 1728.51 130.07C1729.55 128.99 1730.36 127.661 1730.95 126.083C1731.53 124.465 1731.86 122.616 1731.94 120.538L1732.02 118.679C1732.1 116.561 1731.91 114.672 1731.46 113.013C1731 111.354 1730.3 109.965 1729.34 108.847C1728.39 107.688 1727.18 106.8 1725.72 106.182C1724.27 105.564 1722.56 105.217 1720.6 105.14C1718.68 105.064 1716.97 105.277 1715.47 105.779C1713.97 106.28 1712.7 107.071 1711.66 108.15C1710.61 109.19 1709.8 110.519 1709.22 112.138C1708.67 113.757 1708.36 115.627 1708.28 117.745L1708.2 119.603C1708.12 121.682 1708.29 123.55 1708.7 125.207C1709.16 126.827 1709.87 128.215 1710.82 129.374C1711.78 130.532 1712.98 131.421 1714.44 132.038C1715.9 132.656 1717.58 133.003 1719.5 133.078ZM1747.6 140.789L1749.22 99.6611L1770.62 100.504C1773.58 100.62 1776.01 101.276 1777.93 102.472C1779.88 103.63 1781.32 105.228 1782.24 107.266C1783.21 109.265 1783.63 111.624 1783.53 114.342C1783.42 117.06 1782.79 119.417 1781.63 121.413C1780.51 123.37 1778.91 124.868 1776.83 125.907C1774.74 126.946 1772.22 127.407 1769.27 127.291L1757.1 126.812L1756.53 141.141L1747.6 140.789ZM1757.38 119.498L1768.35 119.929C1770.23 120.003 1771.69 119.52 1772.73 118.481C1773.82 117.442 1774.4 115.964 1774.47 114.045C1774.52 112.726 1774.35 111.619 1773.94 110.722C1773.54 109.825 1772.9 109.12 1772.04 108.606C1771.22 108.093 1770.15 107.811 1768.83 107.759L1757.86 107.327L1757.38 119.498Z" fill="#F5F5F5"/>
</g>
<g clip-path="url(#clip1_521_1635)">
<rect width="1803.8" height="98" transform="translate(-38.8105 56.332) rotate(-1.78961)" fill="black"/>
<path d="M-143.043 128.623L-144.328 87.4828L-136.112 87.2261L-118.867 108.898C-118.619 109.171 -118.306 109.561 -117.93 110.069C-117.555 110.538 -117.201 111.007 -116.866 111.477C-116.531 111.947 -116.299 112.32 -116.17 112.596L-115.871 112.586C-115.892 111.907 -115.912 111.247 -115.932 110.607C-115.954 109.928 -115.972 109.328 -115.989 108.808L-116.682 86.619L-108.226 86.3548L-106.941 127.495L-115.157 127.751L-132.779 105.551C-133.196 105.004 -133.635 104.397 -134.096 103.731C-134.557 103.065 -134.893 102.556 -135.104 102.202L-135.404 102.211C-135.385 102.811 -135.367 103.411 -135.348 104.01C-135.33 104.57 -135.314 105.11 -135.297 105.63L-134.587 128.359L-143.043 128.623ZM-97.8308 127.21L-99.1162 86.0702L-66.2522 85.0434L-66.0236 92.3598L-89.892 93.1055L-89.6053 102.281L-68.4956 101.622L-68.2689 108.878L-89.3786 109.538L-89.0656 119.553L-64.8374 118.796L-64.607 126.172L-97.8308 127.21ZM-50.117 125.719L-62.1972 84.9167L-52.7218 84.6206L-45.9583 108.961C-45.8272 109.317 -45.6903 109.853 -45.5479 110.569C-45.4067 111.245 -45.2643 111.961 -45.1206 112.717C-44.977 113.473 -44.8558 114.149 -44.7571 114.747L-44.4572 114.737C-44.391 114.295 -44.3466 113.793 -44.3242 113.232C-44.2617 112.67 -44.1986 112.128 -44.1349 111.606C-44.0324 111.042 -43.9487 110.519 -43.8837 110.037C-43.7788 109.553 -43.7107 109.171 -43.6794 108.89L-38.8685 84.1878L-28.1938 83.8542L-21.7302 108.204C-21.5977 108.6 -21.4609 109.136 -21.3197 109.812C-21.1786 110.488 -21.0361 111.204 -20.8925 111.96C-20.7488 112.716 -20.6276 113.392 -20.5289 113.99L-20.229 113.98C-20.1628 113.538 -20.0979 113.056 -20.0341 112.533C-19.9304 112.01 -19.8467 111.487 -19.783 110.965C-19.6805 110.401 -19.5768 109.878 -19.4719 109.394C-19.3669 108.911 -19.2801 108.488 -19.2114 108.126L-14.0407 83.412L-5.46484 83.1441L-15.0341 124.623L-25.2292 124.942L-32.0769 99.8233C-32.2144 99.2673 -32.3743 98.632 -32.5567 97.9173C-32.7004 97.1615 -32.8434 96.4256 -32.9859 95.7097C-33.1283 94.9938 -33.2482 94.3572 -33.3457 93.8L-33.5855 93.8075C-33.648 94.3697 -33.7274 95.0325 -33.8236 95.7959C-33.8798 96.558 -33.9766 97.3014 -34.1141 98.026C-34.2115 98.7494 -34.3121 99.3729 -34.4158 99.8964L-39.6221 125.391L-50.117 125.719ZM12.6817 123.757L11.3963 82.6172L28.1881 82.0926C32.466 81.9589 36.1274 82.5849 39.1721 83.9705C42.2169 85.3561 44.5863 87.5431 46.2805 90.5317C48.0134 93.479 48.9535 97.3115 49.1009 102.029C49.2471 106.707 48.548 110.591 47.0038 113.68C45.4995 116.769 43.2712 119.1 40.3189 120.673C37.3665 122.246 33.7514 123.099 29.4735 123.233L12.6817 123.757ZM21.3869 116.102L29.1831 115.858C30.9822 115.802 32.5733 115.492 33.9564 114.928C35.3395 114.365 36.4752 113.569 37.3635 112.541C38.2505 111.473 38.9102 110.171 39.3425 108.637C39.7736 107.063 39.9572 105.256 39.8935 103.217L39.8373 101.418C39.7736 99.3792 39.4781 97.6076 38.9509 96.1033C38.4224 94.5591 37.6828 93.3015 36.732 92.3308C35.78 91.32 34.5962 90.5766 33.1806 90.1006C31.7638 89.5846 30.1559 89.3547 28.3567 89.4109L20.5605 89.6545L21.3869 116.102ZM57.0155 122.372L55.7301 81.232L78.2791 80.5275C81.3177 80.4326 83.8533 80.8936 85.886 81.9106C87.9588 82.9264 89.5255 84.3982 90.5862 86.326C91.6457 88.2138 92.2148 90.4171 92.2935 92.9359C92.3772 95.6146 91.8518 98.0122 90.7173 100.129C89.5816 102.205 87.8912 103.819 85.646 104.969L94.5572 121.199L84.6621 121.508L76.9372 106.742L65.4827 107.1L65.9512 122.093L57.0155 122.372ZM65.2616 100.024L77.6756 99.6357C79.4747 99.5795 80.8572 98.996 81.8229 97.8853C82.7875 96.7346 83.2404 95.2197 83.1817 93.3406C83.1442 92.1412 82.8925 91.1286 82.4264 90.3027C81.9592 89.4369 81.2989 88.7972 80.4455 88.3837C79.5922 87.9701 78.5458 87.7827 77.3064 87.8214L64.8925 88.2093L65.2616 100.024ZM119.801 121.131C115.443 121.267 111.661 120.605 108.454 119.144C105.246 117.683 102.754 115.4 100.976 112.294C99.1981 109.188 98.2349 105.256 98.0862 100.499C97.9351 95.661 98.6504 91.6567 100.232 88.4858C101.813 85.2749 104.158 82.8604 107.269 81.2425C110.379 79.5846 114.113 78.6875 118.471 78.5514C122.909 78.4127 126.711 79.0743 129.878 80.5361C133.084 81.9567 135.576 84.2199 137.354 87.3259C139.131 90.3919 140.095 94.3438 140.246 99.1814C140.394 103.939 139.678 107.923 138.098 111.134C136.517 114.345 134.172 116.78 131.063 118.438C127.993 120.094 124.239 120.992 119.801 121.131ZM119.573 113.814C121.532 113.753 123.242 113.419 124.704 112.813C126.166 112.207 127.379 111.329 128.343 110.178C129.308 109.028 130.025 107.645 130.495 106.029C130.963 104.374 131.165 102.507 131.1 100.428L131.042 98.5685C130.976 96.4496 130.657 94.5786 130.086 92.9556C129.515 91.3327 128.713 89.9971 127.68 88.9488C126.645 87.8606 125.38 87.0597 123.883 86.5462C122.386 86.0327 120.658 85.8066 118.699 85.8678C116.78 85.9278 115.09 86.2607 113.628 86.8667C112.166 87.4726 110.953 88.3509 109.989 89.5016C109.023 90.6123 108.306 91.9954 107.837 93.6508C107.409 95.305 107.227 97.1916 107.294 99.3106L107.352 101.17C107.417 103.249 107.715 105.1 108.246 106.724C108.815 108.307 109.617 109.643 110.652 110.731C111.686 111.819 112.952 112.62 114.449 113.134C115.946 113.647 117.653 113.874 119.573 113.814ZM148.143 119.525L146.858 78.3848L168.267 77.7158C171.226 77.6234 173.702 78.1063 175.696 79.1645C177.729 80.1816 179.276 81.674 180.338 83.6418C181.439 85.5683 182.032 87.8909 182.117 90.6096C182.201 93.3283 181.736 95.724 180.72 97.7967C179.743 99.8282 178.253 101.436 176.249 102.619C174.245 103.802 171.763 104.44 168.805 104.532L156.631 104.913L157.079 119.246L148.143 119.525ZM156.402 97.5961L167.377 97.2532C169.256 97.1945 170.678 96.6098 171.644 95.4991C172.65 94.3871 173.123 92.8716 173.063 90.9525C173.022 89.6332 172.767 88.5406 172.3 87.6747C171.833 86.8089 171.152 86.1499 170.257 85.6976C169.403 85.244 168.316 85.0379 166.996 85.0791L156.022 85.422L156.402 97.5961Z" fill="#F5F5F5"/>
<circle cx="209.6" cy="97.5949" r="10" transform="rotate(-1.78961 209.6 97.5949)" fill="#F5F5F5"/>
<path d="M239.775 116.846L238.49 75.7065L246.706 75.4498L263.951 97.1218C264.2 97.3941 264.512 97.7846 264.888 98.2931C265.263 98.7616 265.618 99.2308 265.953 99.7005C266.287 100.17 266.519 100.543 266.648 100.819L266.948 100.81C266.926 100.13 266.906 99.4706 266.886 98.831C266.865 98.1513 266.846 97.5516 266.83 97.0318L266.136 74.8427L274.592 74.5785L275.878 115.718L267.662 115.975L250.04 93.7746C249.622 93.2274 249.183 92.6208 248.722 91.9548C248.261 91.2889 247.925 90.7792 247.714 90.4256L247.414 90.435C247.433 91.0347 247.452 91.6344 247.47 92.2341C247.488 92.7938 247.505 93.3335 247.521 93.8533L248.231 116.582L239.775 116.846ZM284.988 115.434L283.702 74.2938L316.566 73.267L316.795 80.5834L292.926 81.3292L293.213 90.5047L314.323 89.8451L314.55 97.1016L293.44 97.7612L293.753 107.776L317.981 107.019L318.211 114.396L284.988 115.434ZM332.701 113.943L320.621 73.1403L330.097 72.8442L336.86 97.1849C336.991 97.541 337.128 98.077 337.27 98.7929C337.412 99.4688 337.554 100.185 337.698 100.941C337.841 101.696 337.963 102.373 338.061 102.97L338.361 102.961C338.427 102.519 338.472 102.017 338.494 101.456C338.557 100.894 338.62 100.351 338.683 99.8292C338.786 99.2658 338.87 98.7429 338.935 98.2606C339.04 97.7771 339.108 97.3948 339.139 97.1137L343.95 72.4114L354.625 72.0779L361.088 96.4279C361.221 96.8239 361.357 97.3599 361.499 98.0358C361.64 98.7118 361.782 99.4277 361.926 100.184C362.07 100.939 362.191 101.616 362.289 102.213L362.589 102.204C362.656 101.762 362.721 101.279 362.784 100.757C362.888 100.234 362.972 99.7107 363.035 99.1884C363.138 98.6249 363.242 98.1015 363.346 97.6179C363.451 97.1344 363.538 96.7115 363.607 96.3492L368.778 71.6356L377.354 71.3677L367.784 112.847L357.589 113.165L350.741 88.0469C350.604 87.4909 350.444 86.8556 350.262 86.141C350.118 85.3851 349.975 84.6492 349.833 83.9333C349.69 83.2174 349.57 82.5808 349.473 82.0236L349.233 82.0311C349.17 82.5933 349.091 83.2561 348.995 84.0195C348.939 84.7816 348.842 85.525 348.704 86.2497C348.607 86.9731 348.506 87.5965 348.403 88.12L343.196 113.615L332.701 113.943ZM395.5 111.981L394.215 70.8409L411.006 70.3162C415.284 70.1826 418.946 70.8085 421.99 72.1941C425.035 73.5797 427.405 75.7668 429.099 78.7553C430.832 81.7026 431.772 85.5351 431.919 90.2528C432.065 94.9306 431.366 98.8143 429.822 101.904C428.318 104.993 426.09 107.323 423.137 108.896C420.185 110.469 416.57 111.322 412.292 111.456L395.5 111.981ZM404.205 104.325L412.001 104.082C413.801 104.025 415.392 103.716 416.775 103.152C418.158 102.589 419.294 101.793 420.182 100.765C421.069 99.6963 421.729 98.3951 422.161 96.8608C422.592 95.2866 422.776 93.48 422.712 91.441L422.656 89.6418C422.592 87.6028 422.297 85.8312 421.769 84.3269C421.241 82.7827 420.501 81.5252 419.55 80.5544C418.598 79.5436 417.415 78.8002 415.999 78.3242C414.582 77.8082 412.974 77.5783 411.175 77.6345L403.379 77.8781L404.205 104.325ZM439.834 110.596L438.548 69.4557L461.097 68.7511C464.136 68.6562 466.672 69.1172 468.704 70.1342C470.777 71.15 472.344 72.6218 473.405 74.5496C474.464 76.4374 475.033 78.6408 475.112 81.1595C475.196 83.8382 474.67 86.2358 473.536 88.3523C472.4 90.4287 470.71 92.0423 468.464 93.193L477.376 109.423L467.48 109.732L459.756 94.9658L448.301 95.3237L448.77 110.316L439.834 110.596ZM448.08 88.2472L460.494 87.8593C462.293 87.8031 463.676 87.2196 464.641 86.1089C465.606 84.9582 466.059 83.4434 466 81.5643C465.963 80.3649 465.711 79.3522 465.245 78.5264C464.778 77.6606 464.117 77.0209 463.264 76.6073C462.411 76.1938 461.364 76.0063 460.125 76.0451L447.711 76.4329L448.08 88.2472ZM502.62 109.354C498.262 109.49 494.479 108.828 491.272 107.368C488.065 105.907 485.572 103.624 483.794 100.518C482.017 97.4118 481.053 93.48 480.905 88.7223C480.753 83.8847 481.469 79.8804 483.05 76.7094C484.631 73.4985 486.977 71.0841 490.088 69.4661C493.197 67.8082 496.931 66.9112 501.289 66.775C505.727 66.6363 509.529 67.2979 512.697 68.7597C515.903 70.1803 518.395 72.4436 520.172 75.5496C521.949 78.6156 522.913 82.5674 523.064 87.405C523.213 92.1627 522.497 96.147 520.916 99.3579C519.336 102.569 516.991 105.003 513.881 106.661C510.811 108.318 507.057 109.216 502.62 109.354ZM502.391 102.038C504.35 101.977 506.06 101.643 507.522 101.037C508.984 100.431 510.197 99.5528 511.162 98.4021C512.126 97.2514 512.843 95.8684 513.313 94.2529C513.782 92.5975 513.983 90.7302 513.918 88.6513L513.86 86.7922C513.794 84.6732 513.476 82.8022 512.905 81.1793C512.334 79.5563 511.532 78.2207 510.498 77.1725C509.464 76.0842 508.198 75.2834 506.701 74.7699C505.205 74.2564 503.477 74.0302 501.518 74.0914C499.599 74.1514 497.908 74.4843 496.446 75.0903C494.985 75.6962 493.772 76.5746 492.807 77.7252C491.841 78.8359 491.124 80.219 490.655 81.8744C490.227 83.5286 490.046 85.4152 490.112 87.5342L490.17 89.3933C490.235 91.4723 490.533 93.3239 491.064 94.9481C491.634 96.531 492.436 97.8667 493.47 98.9549C494.505 100.043 495.77 100.844 497.267 101.357C498.764 101.871 500.472 102.098 502.391 102.038ZM530.961 107.748L529.676 66.6084L551.085 65.9395C554.044 65.847 556.52 66.3299 558.514 67.3882C560.547 68.4052 562.094 69.8976 563.156 71.8654C564.257 73.792 564.85 76.1146 564.935 78.8333C565.02 81.5519 564.554 83.9476 563.539 86.0204C562.562 88.0519 561.071 89.6592 559.067 90.8424C557.063 92.0255 554.582 92.6633 551.623 92.7558L539.449 93.1361L539.897 107.469L530.961 107.748ZM539.221 85.8197L550.195 85.4768C552.074 85.4181 553.497 84.8334 554.462 83.7227C555.468 82.6107 555.941 81.0952 555.881 79.1762C555.84 77.8568 555.586 76.7642 555.118 75.8984C554.651 75.0326 553.97 74.3735 553.076 73.9212C552.221 73.4677 551.134 73.2615 549.815 73.3027L538.84 73.6456L539.221 85.8197Z" fill="#F5F5F5"/>
<circle cx="592.419" cy="85.8186" r="10" transform="rotate(-1.78961 592.419 85.8186)" fill="#F5F5F5"/>
<path d="M622.549 104.886L621.263 63.7465L629.479 63.4898L646.725 85.1618C646.973 85.4342 647.285 85.8246 647.662 86.3331C648.036 86.8016 648.391 87.2708 648.726 87.7406C649.061 88.2103 649.293 88.5833 649.421 88.8594L649.721 88.85C649.7 88.1704 649.679 87.5107 649.659 86.871C649.638 86.1913 649.619 85.5916 649.603 85.0719L648.91 62.8827L657.366 62.6185L658.651 103.758L650.435 104.015L632.813 81.8146C632.396 81.2674 631.957 80.6608 631.496 79.9949C631.035 79.329 630.699 78.8192 630.487 78.4656L630.188 78.475C630.206 79.0747 630.225 79.6744 630.244 80.2741C630.261 80.8338 630.278 81.3736 630.294 81.8933L631.005 104.622L622.549 104.886ZM667.761 103.474L666.476 62.3339L699.34 61.307L699.568 68.6235L675.7 69.3692L675.987 78.5447L697.096 77.8852L697.323 85.1416L676.213 85.8012L676.526 95.8163L700.754 95.0593L700.985 102.436L667.761 103.474ZM715.475 101.983L703.395 61.1803L712.87 60.8843L719.633 85.2249C719.765 85.581 719.901 86.117 720.044 86.8329C720.185 87.5088 720.327 88.2247 720.471 88.9806C720.615 89.7365 720.736 90.413 720.835 91.0102L721.135 91.0009C721.201 90.5586 721.245 90.057 721.268 89.496C721.33 88.9337 721.393 88.3915 721.457 87.8693C721.559 87.3058 721.643 86.7829 721.708 86.3007C721.813 85.8171 721.881 85.4348 721.912 85.1537L726.723 60.4514L737.398 60.1179L743.862 84.4679C743.994 84.864 744.131 85.4 744.272 86.0759C744.413 86.7518 744.556 87.4677 744.699 88.2236C744.843 88.9795 744.964 89.656 745.063 90.2532L745.363 90.2439C745.429 89.8016 745.494 89.3193 745.558 88.7971C745.661 88.2736 745.745 87.7507 745.809 87.2285C745.911 86.665 746.015 86.1415 746.12 85.658C746.225 85.1745 746.312 84.7515 746.38 84.3892L751.551 59.6757L760.127 59.4077L750.558 100.887L740.363 101.205L733.515 76.087C733.377 75.531 733.218 74.8957 733.035 74.181C732.891 73.4251 732.748 72.6892 732.606 71.9733C732.464 71.2574 732.344 70.6209 732.246 70.0636L732.006 70.0711C731.944 70.6334 731.864 71.2962 731.768 72.0595C731.712 72.8217 731.615 73.5651 731.478 74.2897C731.38 75.0131 731.28 75.6365 731.176 76.16L725.97 101.655L715.475 101.983ZM778.274 100.021L776.988 58.8809L793.78 58.3563C798.058 58.2226 801.719 58.8486 804.764 60.2341C807.809 61.6197 810.178 63.8068 811.872 66.7954C813.605 69.7427 814.545 73.5752 814.693 78.2929C814.839 82.9706 814.14 86.8543 812.596 89.9441C811.091 93.0325 808.863 95.3633 805.911 96.9362C802.958 98.5092 799.343 99.3625 795.065 99.4962L778.274 100.021ZM786.979 92.3652L794.775 92.1217C796.574 92.0654 798.165 91.7556 799.548 91.1921C800.931 90.6287 802.067 89.8328 802.955 88.8046C803.842 87.7363 804.502 86.4351 804.934 84.9009C805.365 83.3266 805.549 81.52 805.485 79.481L805.429 77.6819C805.365 75.6429 805.07 73.8712 804.543 72.367C804.014 70.8227 803.275 69.5652 802.324 68.5944C801.372 67.5837 800.188 66.8403 798.772 66.3642C797.356 65.8482 795.748 65.6183 793.949 65.6746L786.152 65.9182L786.979 92.3652ZM822.607 98.6356L821.322 57.4957L843.871 56.7912C846.909 56.6962 849.445 57.1573 851.478 58.1743C853.551 59.19 855.117 60.6618 856.178 62.5897C857.237 64.4775 857.807 66.6808 857.885 69.1996C857.969 71.8783 857.444 74.2758 856.309 76.3923C855.173 78.4688 853.483 80.0824 851.238 81.233L860.149 97.4627L850.254 97.7718L842.529 83.0059L831.075 83.3638L831.543 98.3564L822.607 98.6356ZM830.853 76.2872L843.267 75.8993C845.066 75.8431 846.449 75.2597 847.415 74.149C848.379 72.9983 848.832 71.4834 848.773 69.6043C848.736 68.4049 848.484 67.3923 848.018 66.5664C847.551 65.7006 846.891 65.0609 846.037 64.6473C845.184 64.2338 844.138 64.0464 842.898 64.0851L830.484 64.473L830.853 76.2872ZM885.393 97.3943C881.035 97.5304 877.253 96.8682 874.045 95.4077C870.838 93.9471 868.346 91.6638 866.568 88.5579C864.79 85.4519 863.827 81.52 863.678 76.7623C863.527 71.9247 864.242 67.9204 865.824 64.7495C867.404 61.5385 869.75 59.1241 872.861 57.5062C875.971 55.8482 879.705 54.9512 884.063 54.815C888.5 54.6764 892.303 55.338 895.47 56.7998C898.676 58.2203 901.168 60.4836 902.946 63.5896C904.722 66.6556 905.686 70.6074 905.837 75.4451C905.986 80.2028 905.27 84.1871 903.69 87.398C902.109 90.6089 899.764 93.0433 896.654 94.7013C893.585 96.3579 889.831 97.2556 885.393 97.3943ZM885.164 90.0778C887.123 90.0166 888.834 89.683 890.296 89.0771C891.757 88.4711 892.971 87.5928 893.935 86.4422C894.9 85.2915 895.617 83.9084 896.087 82.2929C896.555 80.6375 896.757 78.7703 896.692 76.6913L896.634 74.8322C896.568 72.7132 896.249 70.8423 895.678 69.2193C895.107 67.5964 894.305 66.2608 893.272 65.2125C892.237 64.1243 890.972 63.3234 889.475 62.8099C887.978 62.2964 886.25 62.0703 884.291 62.1315C882.372 62.1914 880.682 62.5244 879.22 63.1303C877.758 63.7363 876.545 64.6146 875.58 65.7653C874.615 66.876 873.897 68.259 873.429 69.9145C873 71.5687 872.819 73.4553 872.885 75.5742L872.944 77.4333C873.008 79.5123 873.306 81.3639 873.837 82.9881C874.407 84.5711 875.209 85.9067 876.244 86.9949C877.278 88.0831 878.544 88.884 880.041 89.3975C881.537 89.911 883.245 90.1378 885.164 90.0778ZM913.735 95.7884L912.449 54.6484L933.859 53.9795C936.817 53.8871 939.294 54.37 941.288 55.4282C943.321 56.4452 944.868 57.9376 945.93 59.9054C947.031 61.832 947.623 64.1546 947.708 66.8733C947.793 69.592 947.328 71.9877 946.312 74.0604C945.335 76.0919 943.845 77.6992 941.84 78.8824C939.836 80.0656 937.355 80.7034 934.397 80.7958L922.223 81.1762L922.67 95.5092L913.735 95.7884ZM921.994 73.8597L932.969 73.5168C934.848 73.4581 936.27 72.8734 937.236 71.7627C938.242 70.6508 938.715 69.1353 938.655 67.2162C938.613 65.8968 938.359 64.8043 937.892 63.9384C937.425 63.0726 936.744 62.4135 935.849 61.9612C934.995 61.5077 933.908 61.3016 932.588 61.3428L921.614 61.6857L921.994 73.8597Z" fill="#F5F5F5"/>
<circle cx="975.192" cy="73.8586" r="10" transform="rotate(-1.78961 975.192 73.8586)" fill="#F5F5F5"/>
<path d="M1005.36 92.9255L1004.08 51.7856L1012.29 51.5289L1029.54 73.2009C1029.79 73.4732 1030.1 73.8637 1030.47 74.3722C1030.85 74.8407 1031.2 75.3099 1031.54 75.7796C1031.87 76.2494 1032.11 76.6223 1032.23 76.8985L1032.53 76.8891C1032.51 76.2094 1032.49 75.5497 1032.47 74.9101C1032.45 74.2304 1032.43 73.6307 1032.42 73.1109L1031.72 50.9218L1040.18 50.6576L1041.46 91.7975L1033.25 92.0542L1015.63 69.8537C1015.21 69.3065 1014.77 68.6999 1014.31 68.0339C1013.85 67.368 1013.51 66.8583 1013.3 66.5047L1013 66.5141C1013.02 67.1138 1013.04 67.7135 1013.06 68.3132C1013.07 68.8729 1013.09 69.4126 1013.11 69.9324L1013.82 92.6613L1005.36 92.9255ZM1050.57 91.5128L1049.29 50.3729L1082.15 49.3461L1082.38 56.6625L1058.51 57.4083L1058.8 66.5838L1079.91 65.9242L1080.14 73.1807L1059.03 73.8403L1059.34 83.8554L1083.57 83.0984L1083.8 90.4748L1050.57 91.5128ZM1098.29 90.022L1086.21 49.2194L1095.68 48.9233L1102.45 73.264C1102.58 73.6201 1102.71 74.1561 1102.86 74.872C1103 75.5479 1103.14 76.2638 1103.28 77.0197C1103.43 77.7755 1103.55 78.4521 1103.65 79.0493L1103.95 79.0399C1104.01 78.5976 1104.06 78.096 1104.08 77.535C1104.14 76.9728 1104.21 76.4306 1104.27 75.9083C1104.37 75.3449 1104.46 74.822 1104.52 74.3397C1104.63 73.8562 1104.69 73.4739 1104.72 73.1928L1109.54 48.4905L1120.21 48.157L1126.67 72.507C1126.81 72.903 1126.94 73.439 1127.08 74.115C1127.23 74.7909 1127.37 75.5068 1127.51 76.2627C1127.66 77.0185 1127.78 77.6951 1127.88 78.2923L1128.18 78.2829C1128.24 77.8406 1128.31 77.3584 1128.37 76.8361C1128.47 76.3126 1128.56 75.7898 1128.62 75.2675C1128.72 74.704 1128.83 74.1806 1128.93 73.697C1129.04 73.2135 1129.12 72.7906 1129.19 72.4283L1134.36 47.7147L1142.94 47.4468L1133.37 88.9259L1123.18 89.2444L1116.33 64.126C1116.19 63.57 1116.03 62.9347 1115.85 62.2201C1115.7 61.4642 1115.56 60.7283 1115.42 60.0124C1115.28 59.2965 1115.16 58.6599 1115.06 58.1027L1114.82 58.1102C1114.76 58.6724 1114.68 59.3352 1114.58 60.0986C1114.52 60.8607 1114.43 61.6041 1114.29 62.3288C1114.19 63.0522 1114.09 63.6756 1113.99 64.1991L1108.78 89.6941L1098.29 90.022ZM1161.09 88.0599L1159.8 46.92L1176.59 46.3953C1180.87 46.2617 1184.53 46.8876 1187.58 48.2732C1190.62 49.6588 1192.99 51.8459 1194.68 54.8344C1196.42 57.7817 1197.36 61.6142 1197.51 66.3319C1197.65 71.0097 1196.95 74.8934 1195.41 77.9831C1193.9 81.0716 1191.68 83.4023 1188.72 84.9753C1185.77 86.5483 1182.16 87.4016 1177.88 87.5352L1161.09 88.0599ZM1169.79 80.4043L1177.59 80.1607C1179.39 80.1045 1180.98 79.7947 1182.36 79.2312C1183.74 78.6677 1184.88 77.8719 1185.77 76.8436C1186.65 75.7754 1187.31 74.4742 1187.75 72.9399C1188.18 71.3657 1188.36 69.5591 1188.3 67.5201L1188.24 65.7209C1188.18 63.6819 1187.88 61.9103 1187.36 60.406C1186.83 58.8618 1186.09 57.6043 1185.14 56.6335C1184.18 55.6227 1183 54.8793 1181.58 54.4033C1180.17 53.8873 1178.56 53.6574 1176.76 53.7136L1168.96 53.9572L1169.79 80.4043ZM1205.42 86.6747L1204.13 45.5348L1226.68 44.8302C1229.72 44.7353 1232.26 45.1963 1234.29 46.2133C1236.36 47.2291 1237.93 48.7009 1238.99 50.6287C1240.05 52.5166 1240.62 54.7199 1240.7 57.2386C1240.78 59.9173 1240.26 62.3149 1239.12 64.4314C1237.99 66.5078 1236.3 68.1214 1234.05 69.2721L1242.96 85.5017L1233.07 85.8109L1225.34 71.0449L1213.89 71.4028L1214.36 86.3955L1205.42 86.6747ZM1213.67 64.3263L1226.08 63.9384C1227.88 63.8822 1229.26 63.2987 1230.23 62.188C1231.19 61.0373 1231.64 59.5225 1231.59 57.6434C1231.55 56.444 1231.3 55.4313 1230.83 54.6055C1230.36 53.7397 1229.7 53.1 1228.85 52.6864C1228 52.2729 1226.95 52.0854 1225.71 52.1242L1213.3 52.512L1213.67 64.3263ZM1268.21 85.4333C1263.85 85.5695 1260.07 84.9073 1256.86 83.4467C1253.65 81.9862 1251.16 79.7029 1249.38 76.5969C1247.6 73.4909 1246.64 69.5591 1246.49 64.8014C1246.34 59.9638 1247.05 55.9595 1248.64 52.7885C1250.22 49.5776 1252.56 47.1632 1255.67 45.5452C1258.78 43.8873 1262.52 42.9903 1266.88 42.8541C1271.31 42.7154 1275.12 43.377 1278.28 44.8388C1281.49 46.2594 1283.98 48.5227 1285.76 51.6287C1287.53 54.6947 1288.5 58.6465 1288.65 63.4841C1288.8 68.2418 1288.08 72.2261 1286.5 75.437C1284.92 78.648 1282.58 81.0824 1279.47 82.7403C1276.4 84.397 1272.64 85.2947 1268.21 85.4333ZM1267.98 78.1169C1269.94 78.0557 1271.65 77.7221 1273.11 77.1162C1274.57 76.5102 1275.78 75.6319 1276.75 74.4812C1277.71 73.3305 1278.43 71.9475 1278.9 70.332C1279.37 68.6766 1279.57 66.8093 1279.5 64.7304L1279.45 62.8713C1279.38 60.7523 1279.06 58.8813 1278.49 57.2584C1277.92 55.6354 1277.12 54.2998 1276.08 53.2516C1275.05 52.1633 1273.78 51.3625 1272.29 50.849C1270.79 50.3355 1269.06 50.1093 1267.1 50.1705C1265.18 50.2305 1263.49 50.5634 1262.03 51.1694C1260.57 51.7753 1259.36 52.6537 1258.39 53.8043C1257.43 54.915 1256.71 56.2981 1256.24 57.9535C1255.81 59.6077 1255.63 61.4943 1255.7 63.6133L1255.76 65.4724C1255.82 67.5514 1256.12 69.403 1256.65 71.0272C1257.22 72.6102 1258.02 73.9458 1259.06 75.034C1260.09 76.1222 1261.36 76.9231 1262.85 77.4366C1264.35 77.9501 1266.06 78.1769 1267.98 78.1169ZM1296.55 83.8274L1295.26 42.6875L1316.67 42.0186C1319.63 41.9261 1322.11 42.409 1324.1 43.4673C1326.13 44.4843 1327.68 45.9767 1328.74 47.9445C1329.84 49.8711 1330.44 52.1937 1330.52 54.9124C1330.61 57.631 1330.14 60.0267 1329.12 62.0995C1328.15 64.131 1326.66 65.7383 1324.65 66.9215C1322.65 68.1046 1320.17 68.7424 1317.21 68.8349L1305.04 69.2152L1305.48 83.5482L1296.55 83.8274ZM1304.81 61.8988L1315.78 61.5559C1317.66 61.4972 1319.08 60.9125 1320.05 59.8018C1321.05 58.6898 1321.53 57.1743 1321.47 55.2553C1321.43 53.9359 1321.17 52.8433 1320.7 51.9775C1320.24 51.1117 1319.56 50.4526 1318.66 50.0003C1317.81 49.5468 1316.72 49.3406 1315.4 49.3818L1304.43 49.7247L1304.81 61.8988Z" fill="#F5F5F5"/>
<circle cx="1358" cy="61.8977" r="10" transform="rotate(-1.78961 1358 61.8977)" fill="#F5F5F5"/>
<path d="M1388.18 80.9646L1386.89 39.8246L1395.11 39.5679L1412.35 61.2399C1412.6 61.5123 1412.91 61.9027 1413.29 62.4112C1413.66 62.8798 1414.02 63.3489 1414.35 63.8187C1414.69 64.2885 1414.92 64.6614 1415.05 64.9375L1415.35 64.9282C1415.33 64.2485 1415.31 63.5888 1415.29 62.9491C1415.27 62.2694 1415.25 61.6697 1415.23 61.15L1414.54 38.9608L1422.99 38.6966L1424.28 79.8365L1416.06 80.0933L1398.44 57.8927C1398.02 57.3455 1397.58 56.7389 1397.12 56.073C1396.66 55.4071 1396.33 54.8973 1396.11 54.5437L1395.81 54.5531C1395.83 55.1528 1395.85 55.7525 1395.87 56.3522C1395.89 56.912 1395.91 57.4517 1395.92 57.9714L1396.63 80.7004L1388.18 80.9646ZM1433.39 79.5519L1432.1 38.412L1464.97 37.3852L1465.2 44.7016L1441.33 45.4473L1441.61 54.6229L1462.72 53.9633L1462.95 61.2198L1441.84 61.8793L1442.15 71.8944L1466.38 71.1374L1466.61 78.5138L1433.39 79.5519ZM1481.1 78.0611L1469.02 37.2585L1478.5 36.9624L1485.26 61.3031C1485.39 61.6591 1485.53 62.1951 1485.67 62.911C1485.81 63.5869 1485.95 64.3028 1486.1 65.0587C1486.24 65.8146 1486.36 66.4911 1486.46 67.0884L1486.76 67.079C1486.83 66.6367 1486.87 66.1351 1486.89 65.5741C1486.96 65.0119 1487.02 64.4696 1487.08 63.9474C1487.19 63.3839 1487.27 62.8611 1487.34 62.3788C1487.44 61.8953 1487.51 61.513 1487.54 61.2318L1492.35 36.5296L1503.02 36.196L1509.49 60.546C1509.62 60.9421 1509.76 61.4781 1509.9 62.154C1510.04 62.8299 1510.18 63.5458 1510.33 64.3017C1510.47 65.0576 1510.59 65.7341 1510.69 66.3314L1510.99 66.322C1511.06 65.8797 1511.12 65.3974 1511.18 64.8752C1511.29 64.3517 1511.37 63.8288 1511.44 63.3066C1511.54 62.7431 1511.64 62.2196 1511.75 61.7361C1511.85 61.2526 1511.94 60.8297 1512.01 60.4673L1517.18 35.7538L1525.75 35.4859L1516.18 76.9649L1505.99 77.2835L1499.14 52.1651C1499 51.6091 1498.84 50.9738 1498.66 50.2591C1498.52 49.5033 1498.38 48.7674 1498.23 48.0515C1498.09 47.3356 1497.97 46.699 1497.87 46.1418L1497.63 46.1493C1497.57 46.7115 1497.49 47.3743 1497.4 48.1377C1497.34 48.8998 1497.24 49.6432 1497.1 50.3678C1497.01 51.0912 1496.91 51.7147 1496.8 52.2382L1491.6 77.7332L1481.1 78.0611ZM1543.9 76.099L1542.62 34.959L1559.41 34.4344C1563.68 34.3007 1567.35 34.9267 1570.39 36.3123C1573.44 37.6979 1575.81 39.8849 1577.5 42.8735C1579.23 45.8208 1580.17 49.6533 1580.32 54.371C1580.47 59.0487 1579.77 62.9325 1578.22 66.0222C1576.72 69.1107 1574.49 71.4414 1571.54 73.0144C1568.59 74.5873 1564.97 75.4406 1560.69 75.5743L1543.9 76.099ZM1552.61 68.4434L1560.4 68.1998C1562.2 68.1436 1563.79 67.8337 1565.18 67.2703C1566.56 66.7068 1567.69 65.9109 1568.58 64.8827C1569.47 63.8145 1570.13 62.5132 1570.56 60.979C1570.99 59.4048 1571.18 57.5981 1571.11 55.5591L1571.06 53.76C1570.99 51.721 1570.7 49.9494 1570.17 48.4451C1569.64 46.9008 1568.9 45.6433 1567.95 44.6726C1567 43.6618 1565.81 42.9184 1564.4 42.4424C1562.98 41.9264 1561.37 41.6965 1559.58 41.7527L1551.78 41.9963L1552.61 68.4434ZM1588.23 74.7138L1586.95 33.5738L1609.5 32.8693C1612.54 32.7744 1615.07 33.2354 1617.1 34.2524C1619.18 35.2682 1620.74 36.74 1621.8 38.6678C1622.86 40.5556 1623.43 42.7589 1623.51 45.2777C1623.6 47.9564 1623.07 50.354 1621.94 52.4704C1620.8 54.5469 1619.11 56.1605 1616.86 57.3112L1625.78 73.5408L1615.88 73.85L1608.16 59.084L1596.7 59.4419L1597.17 74.4346L1588.23 74.7138ZM1596.48 52.3653L1608.89 51.9775C1610.69 51.9213 1612.08 51.3378 1613.04 50.2271C1614.01 49.0764 1614.46 47.5615 1614.4 45.6824C1614.36 44.483 1614.11 43.4704 1613.65 42.6445C1613.18 41.7787 1612.52 41.139 1611.66 40.7255C1610.81 40.3119 1609.76 40.1245 1608.53 40.1632L1596.11 40.5511L1596.48 52.3653ZM1651.02 73.4724C1646.66 73.6085 1642.88 72.9464 1639.67 71.4858C1636.47 70.0252 1633.97 67.742 1632.19 64.636C1630.42 61.53 1629.45 57.5981 1629.3 52.8405C1629.15 48.0028 1629.87 43.9985 1631.45 40.8276C1633.03 37.6167 1635.38 35.2022 1638.49 33.5843C1641.6 31.9264 1645.33 31.0293 1649.69 30.8932C1654.13 30.7545 1657.93 31.4161 1661.1 32.8779C1664.3 34.2984 1666.79 36.5617 1668.57 39.6677C1670.35 42.7337 1671.31 46.6856 1671.46 51.5232C1671.61 56.2809 1670.9 60.2652 1669.32 63.4761C1667.74 66.687 1665.39 69.1215 1662.28 70.7794C1659.21 72.4361 1655.46 73.3337 1651.02 73.4724ZM1650.79 66.156C1652.75 66.0947 1654.46 65.7612 1655.92 65.1552C1657.38 64.5493 1658.6 63.671 1659.56 62.5203C1660.53 61.3696 1661.24 59.9865 1661.71 58.3711C1662.18 56.7156 1662.38 54.8484 1662.32 52.7694L1662.26 50.9103C1662.19 48.7914 1661.88 46.9204 1661.31 45.2974C1660.73 43.6745 1659.93 42.3389 1658.9 41.2906C1657.86 40.2024 1656.6 39.4015 1655.1 38.888C1653.61 38.3745 1651.88 38.1484 1649.92 38.2096C1648 38.2696 1646.31 38.6025 1644.85 39.2085C1643.39 39.8144 1642.17 40.6927 1641.21 41.8434C1640.24 42.9541 1639.52 44.3372 1639.06 45.9926C1638.63 47.6468 1638.45 49.5334 1638.51 51.6523L1638.57 53.5114C1638.64 55.5904 1638.93 57.442 1639.46 59.0662C1640.03 60.6492 1640.84 61.9848 1641.87 63.073C1642.91 64.1613 1644.17 64.9621 1645.67 65.4756C1647.16 65.9891 1648.87 66.2159 1650.79 66.156ZM1679.36 71.8665L1678.08 30.7266L1699.49 30.0576C1702.44 29.9652 1704.92 30.4481 1706.91 31.5063C1708.95 32.5234 1710.49 34.0158 1711.56 35.9836C1712.66 37.9101 1713.25 40.2327 1713.34 42.9514C1713.42 45.6701 1712.95 48.0658 1711.94 50.1385C1710.96 52.17 1709.47 53.7774 1707.47 54.9605C1705.46 56.1437 1702.98 56.7815 1700.02 56.8739L1687.85 57.2543L1688.3 71.5873L1679.36 71.8665ZM1687.62 49.9379L1698.6 49.595C1700.47 49.5363 1701.9 48.9516 1702.86 47.8408C1703.87 46.7289 1704.34 45.2134 1704.28 43.2943C1704.24 41.975 1703.99 40.8824 1703.52 40.0165C1703.05 39.1507 1702.37 38.4917 1701.48 38.0394C1700.62 37.5858 1699.53 37.3797 1698.22 37.4209L1687.24 37.7638L1687.62 49.9379Z" fill="#F5F5F5"/>
</g>
<defs>
<clipPath id="clip0_521_1635">
<rect width="1803.8" height="98" fill="white" transform="translate(-35.1465 1.38184) rotate(2.25401)"/>
</clipPath>
<clipPath id="clip1_521_1635">
<rect width="1803.8" height="98" fill="white" transform="translate(-38.8105 56.332) rotate(-1.78961)"/>
</clipPath>
</defs>
</svg>
